<mxfile host="app.diagrams.net" modified="2021-12-13T02:52:36.941Z" agent="5.0 (Windows NT 10.0; Win64; x64) AppleWebKit/537.36 (KHTML, like Gecko) Chrome/96.0.4664.93 Safari/537.36" etag="BuiSfB28AFViTMTOtCyg" version="15.9.4" type="github" pages="2">
  <diagram id="4rURtBw_kzDyznw2iCS-" name="1111">
    <mxGraphModel dx="1422" dy="762" grid="1" gridSize="10" guides="1" tooltips="1" connect="1" arrows="1" fold="1" page="1" pageScale="1" pageWidth="827" pageHeight="1169" math="0" shadow="0">
      <root>
        <mxCell id="0" />
        <mxCell id="1" parent="0" />
        <mxCell id="TD6vN9dzbYoxnYCX0wyE-1" value="" style="rounded=0;whiteSpace=wrap;html=1;" vertex="1" parent="1">
          <mxGeometry x="230" y="210" width="120" height="60" as="geometry" />
        </mxCell>
      </root>
    </mxGraphModel>
  </diagram>
  <diagram id="sJcZqVYKHyQ9cZi1KrTi" name="2222">
    <mxGraphModel dx="1422" dy="762" grid="1" gridSize="10" guides="1" tooltips="1" connect="1" arrows="1" fold="1" page="1" pageScale="1" pageWidth="827" pageHeight="1169" math="0" shadow="0">
      <root>
        <mxCell id="IPCSEINL5uGok5dhRhjH-0" />
        <mxCell id="IPCSEINL5uGok5dhRhjH-1" parent="IPCSEINL5uGok5dhRhjH-0" />
      </root>
    </mxGraphModel>
  </diagram>
</mxfile>
